<svg width="68" height="68" viewBox="0 0 68 68" fill="none" xmlns="http://www.w3.org/2000/svg">
<rect x="9.99994" y="9.99994" width="48" height="48" fill="#C1CFDA"/>
<path d="M16.216 22.92H20.328L24.6 30.872L28.92 22.92H32.872L26.76 33.064L33.544 45H29.432L24.536 35.608L19.624 45H15.656L22.344 33.24L16.216 22.92ZM52.1875 33.96C52.1875 36.232 51.8728 38.232 51.2435 39.96C50.6142 41.6773 49.6755 43.0213 48.4275 43.992C47.1795 44.952 45.6328 45.432 43.7875 45.432C41.9528 45.432 40.4062 44.9627 39.1475 44.024C37.8995 43.0747 36.9608 41.7467 36.3315 40.04C35.7022 38.3227 35.3875 36.3067 35.3875 33.992C35.3875 31.7093 35.7022 29.7093 36.3315 27.992C36.9608 26.264 37.8995 24.9147 39.1475 23.944C40.4062 22.9627 41.9528 22.472 43.7875 22.472C45.6328 22.472 47.1795 22.9467 48.4275 23.896C49.6755 24.8453 50.6142 26.184 51.2435 27.912C51.8728 29.6293 52.1875 31.6453 52.1875 33.96ZM48.3475 33.96C48.3475 31.1013 47.9902 28.9573 47.2755 27.528C46.5715 26.088 45.4088 25.368 43.7875 25.368C42.1662 25.368 40.9982 26.0933 40.2835 27.544C39.5795 28.984 39.2275 31.1333 39.2275 33.992C39.2275 36.84 39.5902 38.9787 40.3155 40.408C41.0408 41.8267 42.1982 42.536 43.7875 42.536C45.4302 42.536 46.5982 41.8213 47.2915 40.392C47.9955 38.952 48.3475 36.808 48.3475 33.96Z" fill="#03191E"/>
</svg>
